<?xml version="1.0" encoding="UTF-8" standalone="no"?><!DOCTYPE svg PUBLIC "-//W3C//DTD SVG 1.1//EN" "http://www.w3.org/Graphics/SVG/1.1/DTD/svg11.dtd"><svg width="100%" height="100%" viewBox="0 0 1029 528" version="1.1" xmlns="http://www.w3.org/2000/svg" xmlns:xlink="http://www.w3.org/1999/xlink" xml:space="preserve" xmlns:serif="http://www.serif.com/" style="fill-rule:evenodd;clip-rule:evenodd;stroke-linejoin:round;stroke-miterlimit:2;"><g id="Layer-1" serif:id="Layer 1"><path d="M166.961,286.864c5.231,-2.969 9.65,-6.937 13.15,-11.778c3.515,-4.875 5.737,-10.713 6.619,-17.384c0.659,-5.882 0.012,-11.235 -1.938,-15.91c-1.947,-4.665 -4.925,-8.634 -8.866,-11.828c-3.884,-3.147 -8.612,-5.581 -14.043,-7.228c-5.385,-1.634 -11.328,-2.466 -17.647,-2.466c-2.8,0 -5.525,0.05 -8.088,0.175c-2.518,0.091 -5.197,0.282 -7.956,0.547c-2.753,0.275 -5.803,0.65 -9.044,1.144c-3.222,0.456 -6.937,1.056 -11.35,1.816c-0.797,0.134 -1.403,0.781 -1.503,1.59l-13.306,109.663c-0.056,0.525 0.103,1.478 0.444,1.887c0.343,0.391 0.84,1.041 1.362,1.041l22.619,0c0.916,0 1.694,-1.128 1.806,-2.044l11.388,-94.75c0.89,-0.094 1.706,-0.297 2.425,-0.406c0.972,-0.141 1.909,-0.297 2.815,-0.36l2.903,-0.19c0.979,-0.047 2.185,-0.072 3.594,-0.072c2.816,0 5.431,0.425 7.781,1.297c2.313,0.859 4.272,2.065 5.81,3.565c1.519,1.491 2.665,3.282 3.403,5.341c0.737,2.044 0.975,4.331 0.694,6.763c-0.294,2.325 -0.947,4.521 -1.947,6.546c-1.01,2.025 -2.266,3.822 -3.747,5.316c-1.475,1.488 -3.144,2.716 -4.95,3.625c-1.772,0.906 -3.675,1.456 -5.681,1.653c-2.035,0.235 -3.96,0.9 -5.753,1.985c-1.713,1.043 -3.285,2.359 -4.66,3.925c-1.315,1.496 -2.54,3.115 -3.625,4.821c-1.084,1.707 -2.019,3.338 -2.772,4.854c-0.234,0.484 -0.25,1.05 -0.043,1.534c0.206,0.494 0.609,0.869 1.112,1.025c2.744,0.9 5.456,1.434 8.063,1.597c2.246,0.159 4.418,0.15 6.465,-0.006c2.088,2.034 3.681,4.64 4.738,7.753c1.215,3.59 2.2,7.55 2.912,11.772c0.728,4.296 1.385,8.793 1.95,13.325c0.385,3.05 0.947,6.481 1.681,9.321c0.21,0.816 0.932,1.81 1.76,1.81l22.981,0c0.575,0 1.116,-0.703 1.463,-1.166c0.337,-0.469 0.446,-1.284 0.281,-1.84c-1.047,-3.525 -1.835,-7.172 -2.338,-10.575c-0.725,-4.872 -1.468,-9.629 -2.203,-14.047c-0.75,-4.478 -1.806,-8.722 -3.147,-12.563c-1.4,-4 -3.64,-7.547 -6.659,-10.484c-0.038,-0.047 -0.084,-0.088 -0.122,-0.125l0.906,-0.328c0.088,-0.05 0.178,-0.075 0.263,-0.141m99.159,-184.491c-0.025,-0.181 -0.056,-0.39 -0.1,-0.581l-18.765,-92.706c-0.81,-3.984 -3.654,-7.225 -7.466,-8.494c-3.816,-1.294 -8.009,-0.431 -11.022,2.278c0,0 -71.937,64.769 -72.556,65.95c7.712,-0.259 16.469,0.294 25.522,2.519c0,0 -38.025,34.316 -48.338,44.044c3.422,-0.216 6.872,-0.325 10.347,-0.325c42.988,0 82.138,16.569 111.544,43.728c-2.053,-12.775 -9.922,-67.356 -9.922,-67.356c0,0 10.516,4.072 20.756,10.943m-186.453,336.225c-16.859,-15.031 -37.706,-15.125 -50.475,-13.259c0.034,0.194 0.063,0.391 0.103,0.584l18.772,92.716c0.803,3.975 3.65,7.209 7.456,8.503c3.813,1.275 8.016,0.416 11.028,-2.287l70.088,-62.763c1.025,-0.915 1.853,-2.003 2.478,-3.194c-17.394,0.61 -40.016,-2.975 -59.45,-20.3m28.638,-58.44c-17.532,-5.913 -32.357,-16.231 -43.679,-29.341c-12.096,17.325 -18.959,33.035 -20.734,37.316c32.013,30.744 77.706,45.822 124.163,36.756c-5.71,-8.462 -14.213,-22.444 -21.254,-39.753c-12.668,0.884 -25.709,-0.666 -38.496,-4.978m122.234,-42.11c-1.909,-0.087 -3.794,-0.206 -5.656,-0.353c-14.535,23.641 -37.966,39.825 -64.188,45.466c7.703,17.969 16.894,31.866 21.441,38.231c43.015,-13.059 75.912,-45.494 91.156,-85.662c-10.722,1.603 -25.931,3.075 -42.753,2.318m-185.497,-85.718c0.625,-1.878 1.297,-3.71 2.006,-5.535c-20.528,-1.878 -37.193,-0.131 -42.097,0.503c-5.712,21.15 -6.668,43.941 -1.89,66.863c5.047,24.206 15.881,45.681 30.75,63.25c3.756,-8.228 11.087,-22.713 22.269,-38.031c-16.01,-24.907 -21.06,-56.675 -11.038,-87.05m185.666,-10.507c10.35,22.557 12.531,48.994 4.137,74.435c-0.928,2.772 -1.95,5.49 -3.081,8.128c19.372,0.816 36.603,-1.534 46.194,-3.266c5.447,-20.831 6.306,-43.228 1.609,-65.768c-4.475,-21.488 -13.531,-40.819 -25.906,-57.172c-4.013,10.106 -10.244,23.775 -19.063,37.725c-1.275,2.031 -2.584,3.987 -3.89,5.918m-177.375,-8.125c17.075,-29.896 48.081,-48.606 81.503,-50.346c-9.616,-17.582 -20.619,-31.229 -26.025,-37.482c-46.828,11.147 -82.866,44.828 -99.2,87.2c9.194,-0.812 25.203,-1.54 43.722,0.628m95.728,-52.403c-8.369,-16.284 -18.031,-29.625 -24.903,-38.206c45.537,-5.681 89.468,11.444 119.503,43.263c-3.388,9.428 -10.013,25.678 -20.363,42.087c-11.906,-18.172 -29.672,-32.575 -51.706,-40.006c-7.062,-2.381 -14.187,-3.897 -21.291,-4.656c-0.396,-0.841 -0.812,-1.663 -1.24,-2.482" style="fill:#eea122;fill-rule:nonzero;"/><path d="M228.768,2.872c0,0 -71.941,64.766 -72.56,65.947c7.716,-0.26 16.472,0.297 25.522,2.522c0,0 -38.022,34.315 -48.334,44.043c3.422,-0.218 6.869,-0.325 10.347,-0.325c42.984,0 82.137,16.569 111.543,43.725c-2.053,-12.772 -9.921,-67.356 -9.921,-67.356c0,0 10.515,4.075 20.756,10.944c-0.028,-0.178 -0.056,-0.391 -0.103,-0.578l-18.766,-92.707c-0.809,-3.984 -3.653,-7.228 -7.462,-8.496c-1.169,-0.397 -2.375,-0.588 -3.572,-0.588c-2.703,-0.003 -5.363,0.988 -7.45,2.869Zm-104.61,140.219c6.872,8.578 16.532,21.918 24.903,38.203c0.425,0.822 0.844,1.643 1.241,2.481c7.103,0.762 14.228,2.278 21.291,4.656c22.031,7.431 39.8,21.838 51.706,40.006c10.35,-16.409 16.975,-32.659 20.362,-42.087c-26.209,-27.763 -62.996,-44.337 -102.196,-44.337c-5.725,0 -11.504,0.353 -17.307,1.078Zm-114.547,89.981c9.194,-0.813 25.204,-1.541 43.719,0.628c17.078,-29.897 48.085,-48.609 81.506,-50.347c-9.615,-17.584 -20.618,-31.231 -26.025,-37.481c-46.828,11.144 -82.865,44.825 -99.2,87.2Zm224.985,2.834c-1.269,2.028 -2.581,3.988 -3.888,5.916c10.35,22.556 12.528,48.994 4.138,74.434c-0.925,2.775 -1.95,5.491 -3.081,8.128c19.368,0.816 36.603,-1.534 46.193,-3.262c5.447,-20.835 6.307,-43.231 1.607,-65.769c-4.472,-21.487 -13.529,-40.819 -25.904,-57.172c-4.012,10.106 -10.243,23.775 -19.065,37.725Zm-98.447,-15.459c-2.519,0.09 -5.197,0.278 -7.956,0.547c-2.753,0.272 -5.803,0.647 -9.044,1.143c-3.219,0.454 -6.938,1.054 -11.35,1.813c-0.797,0.137 -1.403,0.784 -1.506,1.594l-13.303,109.662c-0.06,0.522 0.103,1.478 0.443,1.888c0.341,0.39 0.841,1.04 1.36,1.04l22.622,0c0.915,0 1.693,-1.128 1.806,-2.046l11.387,-94.751c0.891,-0.09 1.707,-0.293 2.425,-0.403c0.972,-0.14 1.913,-0.3 2.816,-0.362l2.9,-0.191c0.978,-0.044 2.187,-0.072 3.597,-0.072c2.815,0 5.431,0.428 7.781,1.297c2.313,0.86 4.272,2.066 5.806,3.569c1.522,1.487 2.666,3.278 3.403,5.341c0.741,2.043 0.979,4.328 0.697,6.759c-0.293,2.328 -0.947,4.525 -1.947,6.55c-1.009,2.025 -2.268,3.819 -3.746,5.316c-1.479,1.484 -3.144,2.715 -4.95,3.625c-1.775,0.906 -3.675,1.456 -5.682,1.65c-2.037,0.237 -3.962,0.9 -5.75,1.987c-1.718,1.041 -3.29,2.359 -4.662,3.925c-1.316,1.494 -2.541,3.116 -3.625,4.822c-1.085,1.706 -2.019,3.334 -2.772,4.85c-0.234,0.487 -0.25,1.053 -0.047,1.534c0.209,0.497 0.613,0.872 1.116,1.029c2.743,0.899 5.456,1.434 8.059,1.593c2.25,0.163 4.422,0.153 6.469,-0.006c2.087,2.037 3.678,4.644 4.737,7.756c1.216,3.588 2.2,7.55 2.913,11.769c0.728,4.297 1.381,8.794 1.95,13.325c0.381,3.053 0.947,6.484 1.681,9.325c0.209,0.812 0.931,1.809 1.759,1.809l22.982,0c0.575,0 1.115,-0.703 1.459,-1.165c0.341,-0.469 0.45,-1.285 0.281,-1.841c-1.043,-3.525 -1.831,-7.172 -2.337,-10.578c-0.722,-4.869 -1.466,-9.625 -2.2,-14.044c-0.75,-4.481 -1.81,-8.722 -3.144,-12.562c-1.403,-4.003 -3.644,-7.55 -6.662,-10.485c-0.038,-0.05 -0.085,-0.087 -0.122,-0.125l0.906,-0.331c0.087,-0.047 0.175,-0.075 0.262,-0.137c5.232,-2.972 9.65,-6.938 13.15,-11.779c3.516,-4.875 5.741,-10.715 6.616,-17.387c0.663,-5.878 0.013,-11.231 -1.934,-15.906c-1.947,-4.666 -4.928,-8.635 -8.866,-11.828c-3.884,-3.147 -8.612,-5.585 -14.044,-7.229c-5.384,-1.634 -11.328,-2.465 -17.65,-2.465c-2.797,0 -5.522,0.05 -8.084,0.175Zm-131.197,26.85c-5.712,21.153 -6.669,43.944 -1.891,66.865c5.044,24.207 15.879,45.679 30.747,63.247c3.76,-8.225 11.091,-22.709 22.272,-38.031c-16.009,-24.903 -21.059,-56.675 -11.037,-87.05c0.622,-1.878 1.297,-3.709 2.009,-5.534c-6.784,-0.619 -13.147,-0.844 -18.803,-0.844c-11.459,0 -20.016,0.922 -23.297,1.347Zm225.588,90.753c-1.91,-0.091 -3.791,-0.206 -5.657,-0.356c-14.531,23.643 -37.965,39.825 -64.19,45.468c7.706,17.969 16.893,31.866 21.447,38.229c43.009,-13.057 75.912,-45.491 91.153,-85.663c-10.722,1.606 -25.932,3.078 -42.753,2.322Zm-186.65,50.084c32.015,30.744 77.709,45.822 124.165,36.757c-5.709,-8.463 -14.212,-22.444 -21.253,-39.757c-12.669,0.888 -25.709,-0.662 -38.497,-4.975c-17.531,-5.912 -32.356,-16.231 -43.678,-29.34c-12.097,17.325 -18.962,33.034 -20.737,37.315Zm-14.697,37.204c0.034,0.193 0.062,0.39 0.103,0.584l18.772,92.719c0.803,3.975 3.65,7.206 7.456,8.5c3.812,1.275 8.012,0.418 11.025,-2.285l70.087,-62.762c1.025,-0.916 1.857,-2.007 2.479,-3.194c-17.388,0.609 -40.013,-2.978 -59.447,-20.303c-12.528,-11.166 -27.257,-14.088 -39.235,-14.088c-4.143,0 -7.959,0.35 -11.24,0.829Z" style="fill:#eea122;fill-rule:nonzero;"/><path d="M228.768,2.872c0,0 -71.941,64.766 -72.56,65.947c7.716,-0.26 16.472,0.297 25.522,2.522c0,0 -38.022,34.315 -48.334,44.043c3.422,-0.218 6.869,-0.325 10.347,-0.325c42.984,0 82.137,16.569 111.543,43.725c-2.053,-12.772 -9.921,-67.356 -9.921,-67.356c0,0 10.515,4.075 20.756,10.944c-0.028,-0.178 -0.056,-0.391 -0.103,-0.578l-18.766,-92.707c-0.809,-3.984 -3.653,-7.228 -7.462,-8.496c-1.172,-0.397 -2.375,-0.591 -3.569,-0.591c-2.706,0 -5.366,0.991 -7.453,2.872Zm-104.61,140.219c6.872,8.578 16.532,21.918 24.903,38.203c0.425,0.822 0.844,1.643 1.241,2.481c7.103,0.762 14.228,2.278 21.291,4.656c22.031,7.431 39.8,21.838 51.706,40.006c10.35,-16.409 16.975,-32.659 20.362,-42.087c-26.209,-27.763 -62.996,-44.337 -102.196,-44.337c-5.729,0 -11.504,0.353 -17.307,1.078Zm-114.547,89.981c9.194,-0.813 25.204,-1.541 43.719,0.628c17.078,-29.897 48.085,-48.609 81.506,-50.347c-9.615,-17.584 -20.618,-31.231 -26.025,-37.481c-46.828,11.144 -82.865,44.825 -99.2,87.2Zm224.985,2.834c-1.269,2.028 -2.581,3.988 -3.888,5.916c10.35,22.556 12.528,48.994 4.138,74.434c-0.925,2.775 -1.95,5.491 -3.081,8.128c19.368,0.816 36.603,-1.534 46.193,-3.262c5.447,-20.835 6.307,-43.231 1.607,-65.769c-4.472,-21.487 -13.529,-40.819 -25.904,-57.172c-4.012,10.106 -10.243,23.775 -19.065,37.725Zm-98.447,-15.459c-2.519,0.09 -5.197,0.278 -7.956,0.547c-2.753,0.272 -5.803,0.647 -9.044,1.143c-3.219,0.454 -6.938,1.054 -11.35,1.813c-0.797,0.137 -1.403,0.784 -1.506,1.594l-13.303,109.662c-0.06,0.522 0.103,1.478 0.443,1.888c0.341,0.39 0.841,1.04 1.36,1.04l22.622,0c0.915,0 1.693,-1.128 1.806,-2.046l11.387,-94.751c0.891,-0.09 1.707,-0.293 2.425,-0.403c0.972,-0.14 1.913,-0.3 2.816,-0.362l2.9,-0.191c0.978,-0.044 2.187,-0.072 3.597,-0.072c2.815,0 5.431,0.428 7.781,1.297c2.313,0.86 4.272,2.066 5.806,3.569c1.522,1.487 2.666,3.278 3.403,5.341c0.741,2.043 0.979,4.328 0.697,6.759c-0.293,2.328 -0.947,4.525 -1.947,6.55c-1.009,2.025 -2.268,3.819 -3.746,5.316c-1.479,1.484 -3.144,2.715 -4.95,3.625c-1.775,0.906 -3.675,1.456 -5.682,1.65c-2.037,0.237 -3.962,0.9 -5.75,1.987c-1.718,1.041 -3.29,2.359 -4.662,3.925c-1.316,1.494 -2.541,3.116 -3.625,4.822c-1.085,1.706 -2.019,3.334 -2.772,4.85c-0.234,0.487 -0.25,1.053 -0.047,1.534c0.209,0.497 0.613,0.872 1.116,1.029c2.743,0.899 5.456,1.434 8.059,1.593c2.25,0.163 4.422,0.153 6.469,-0.006c2.087,2.037 3.678,4.644 4.737,7.756c1.216,3.588 2.2,7.55 2.913,11.769c0.728,4.297 1.381,8.794 1.95,13.325c0.381,3.053 0.947,6.484 1.681,9.325c0.209,0.812 0.931,1.809 1.759,1.809l22.982,0c0.575,0 1.115,-0.703 1.459,-1.165c0.341,-0.469 0.45,-1.285 0.281,-1.841c-1.043,-3.525 -1.831,-7.172 -2.337,-10.578c-0.722,-4.869 -1.466,-9.625 -2.2,-14.044c-0.75,-4.481 -1.81,-8.722 -3.144,-12.562c-1.403,-4.003 -3.644,-7.55 -6.662,-10.485c-0.038,-0.05 -0.085,-0.087 -0.122,-0.125l0.906,-0.331c0.087,-0.047 0.175,-0.075 0.262,-0.137c5.232,-2.972 9.65,-6.938 13.15,-11.779c3.516,-4.875 5.741,-10.715 6.616,-17.387c0.663,-5.878 0.013,-11.231 -1.934,-15.906c-1.947,-4.666 -4.928,-8.635 -8.866,-11.828c-3.884,-3.147 -8.612,-5.585 -14.044,-7.229c-5.384,-1.634 -11.328,-2.465 -17.65,-2.465c-2.797,0 -5.522,0.05 -8.084,0.175Zm-131.197,26.85c-5.712,21.153 -6.669,43.944 -1.891,66.865c5.044,24.207 15.879,45.679 30.747,63.247c3.76,-8.225 11.091,-22.709 22.272,-38.031c-16.009,-24.903 -21.059,-56.675 -11.037,-87.05c0.622,-1.878 1.297,-3.709 2.009,-5.534c-6.784,-0.619 -13.15,-0.844 -18.803,-0.844c-11.459,0 -20.016,0.922 -23.297,1.347Zm225.588,90.753c-1.91,-0.091 -3.791,-0.206 -5.657,-0.356c-14.531,23.643 -37.965,39.825 -64.19,45.468c7.706,17.969 16.893,31.866 21.447,38.229c43.009,-13.057 75.912,-45.491 91.153,-85.663c-10.722,1.606 -25.932,3.078 -42.753,2.322Zm-186.65,50.084c32.015,30.744 77.709,45.822 124.165,36.757c-5.709,-8.463 -14.212,-22.444 -21.253,-39.757c-12.669,0.888 -25.709,-0.662 -38.497,-4.975c-17.531,-5.912 -32.356,-16.231 -43.678,-29.34c-12.097,17.325 -18.962,33.034 -20.737,37.315Zm-14.697,37.204c0.034,0.193 0.062,0.39 0.103,0.584l18.772,92.719c0.803,3.975 3.65,7.206 7.456,8.5c3.812,1.275 8.012,0.418 11.025,-2.285l70.087,-62.762c1.025,-0.916 1.857,-2.007 2.479,-3.194c-17.388,0.609 -40.013,-2.978 -59.447,-20.303c-12.528,-11.166 -27.257,-14.091 -39.235,-14.091c-4.147,0 -7.959,0.353 -11.24,0.832Z" style="fill:#eea122;fill-rule:nonzero;"/><path d="M384.408,242.037c1.081,0.947 2.053,2.8 2.928,5.556c0.878,2.763 1.381,5.894 1.519,9.394l-0.207,4.847l2.628,-4.847c3.366,-5.385 7.407,-9.56 12.122,-12.525c4.713,-2.96 9.222,-4.444 13.535,-4.444c3.903,0 8.212,0.806 12.928,2.425l-6.063,22.828c-2.693,-0.809 -4.915,-1.347 -6.662,-1.619c-1.753,-0.268 -3.438,-0.403 -5.053,-0.403c-3.503,0 -6.697,0.875 -9.594,2.625c-2.897,1.75 -5.491,4.141 -7.778,7.172c-2.291,3.031 -4.21,6.666 -5.756,10.906c-1.55,4.244 -2.594,8.86 -3.132,13.841l-5.859,48.681l-26.463,0l9.494,-77.971c0.403,-3.769 0.641,-7.782 0.71,-12.022c0.065,-4.241 -0.238,-8.716 -0.91,-13.435l21.613,-1.009Z" style="fill:#fff;fill-rule:nonzero;"/><path d="M501.168,282.439c0.806,-3.097 1.075,-6.059 0.806,-8.891c-0.269,-2.825 -1.044,-5.315 -2.322,-7.471c-1.284,-2.154 -3.031,-3.872 -5.253,-5.154c-2.222,-1.275 -4.884,-1.915 -7.978,-1.915c-2.828,0 -5.725,0.603 -8.687,1.815c-2.963,1.216 -5.725,3.132 -8.279,5.76c-2.565,2.625 -4.818,5.994 -6.768,10.097c-1.953,4.112 -3.266,9.062 -3.941,14.85c-1.484,11.715 0.034,20.775 4.544,27.172c4.509,6.393 11.009,9.593 19.494,9.593c4.712,0 9.393,-0.575 14.037,-1.718c4.65,-1.141 10.066,-3.06 16.263,-5.757l4.85,18.785c-7.679,3.503 -14.819,5.959 -21.413,7.372c-6.603,1.415 -13.066,2.125 -19.394,2.125c-9.29,0 -17.065,-1.688 -23.328,-5.05c-6.262,-3.366 -11.25,-7.71 -14.95,-13.032c-3.706,-5.315 -6.197,-11.343 -7.475,-18.078c-1.281,-6.734 -1.512,-13.534 -0.709,-20.403c1.078,-8.347 3.4,-15.822 6.972,-22.422c3.565,-6.597 8.043,-12.153 13.434,-16.665c5.381,-4.513 11.444,-7.979 18.178,-10.404c6.731,-2.425 13.738,-3.637 21.01,-3.637c7.406,0 14.003,1.484 19.796,4.444c5.788,2.965 10.232,7.072 13.329,12.325c3.103,5.25 4.65,11.547 4.65,18.887c0,7.341 -2.022,15.319 -6.06,23.938l-56.559,0c2.019,-4.713 4.606,-8.653 7.775,-11.819c3.162,-3.163 6.494,-4.747 9.997,-4.747l17.981,0Z" style="fill:#fff;fill-rule:nonzero;"/><path d="M610.045,272.338c0.407,-3.363 0.066,-6.125 -1.009,-8.281c-1.081,-2.154 -3.369,-3.235 -6.869,-3.235c-1.347,0 -2.659,0.172 -3.937,0.51c-1.281,0.337 -2.866,0.571 -4.747,0.706c-1.616,0.134 -3.034,-0.203 -4.244,-1.01c-1.212,-0.809 -2.322,-1.853 -3.334,-3.131c-1.01,-1.278 -1.919,-2.728 -2.725,-4.347c-0.81,-1.612 -1.616,-3.231 -2.425,-4.843c7.137,-3.504 13.297,-5.925 18.484,-7.275c5.181,-1.344 10.131,-2.019 14.847,-2.019c3.5,0 6.831,0.675 10,2.019c3.163,1.35 5.891,3.365 8.178,6.062c2.291,2.694 4.006,6.056 5.153,10.097c1.141,4.041 1.378,8.822 0.707,14.344l-9.091,74.54l-28.078,0l9.09,-74.137Zm-41.409,-30.3c2.825,3.637 4.544,7.24 5.15,10.809c0.606,3.569 0.638,7.372 0.1,11.413l-9.897,82.215l-28.281,0l9.497,-77.975c0.806,-7.809 0.737,-16.29 -0.203,-25.453l23.634,-1.009Z" style="fill:#fff;fill-rule:nonzero;"/><path d="M723.769,282.439c0.813,-3.097 1.078,-6.059 0.813,-8.891c-0.275,-2.825 -1.047,-5.315 -2.325,-7.471c-1.285,-2.154 -3.032,-3.872 -5.253,-5.154c-2.222,-1.275 -4.885,-1.915 -7.982,-1.915c-2.825,0 -5.725,0.603 -8.684,1.815c-2.963,1.216 -5.725,3.132 -8.281,5.76c-2.56,2.625 -4.816,5.994 -6.766,10.097c-1.956,4.112 -3.269,9.062 -3.941,14.85c-1.484,11.715 0.032,20.775 4.547,27.172c4.51,6.393 11.007,9.593 19.491,9.593c4.712,0 9.394,-0.575 14.041,-1.718c4.646,-1.141 10.065,-3.06 16.259,-5.757l4.847,18.785c-7.675,3.503 -14.813,5.959 -21.41,7.372c-6.6,1.415 -13.062,2.125 -19.39,2.125c-9.294,0 -17.072,-1.688 -23.335,-5.05c-6.262,-3.366 -11.243,-7.71 -14.946,-13.032c-3.707,-5.315 -6.197,-11.343 -7.475,-18.078c-1.282,-6.734 -1.516,-13.534 -0.707,-20.403c1.075,-8.347 3.397,-15.822 6.969,-22.422c3.569,-6.597 8.047,-12.153 13.434,-16.665c5.382,-4.513 11.444,-7.979 18.179,-10.404c6.731,-2.425 13.737,-3.637 21.009,-3.637c7.403,0 14.003,1.484 19.797,4.444c5.787,2.965 10.231,7.072 13.331,12.325c3.097,5.25 4.647,11.547 4.647,18.887c0,7.341 -2.022,15.319 -6.063,23.938l-56.559,0c2.019,-4.713 4.613,-8.653 7.778,-11.819c3.163,-3.163 6.497,-4.747 10,-4.747l17.975,0Z" style="fill:#fff;fill-rule:nonzero;"/><path d="M763.161,321.224c6.06,2.422 11.444,4.109 16.16,5.05c4.715,0.943 9.225,1.412 13.534,1.412c4.981,0 8.753,-1.04 11.313,-3.131c2.553,-2.087 3.972,-4.409 4.24,-6.969c0.407,-2.959 -0.472,-5.453 -2.625,-7.475c-2.156,-2.018 -4.95,-3.903 -8.381,-5.653c-3.437,-1.75 -7.172,-3.5 -11.212,-5.253c-4.041,-1.747 -7.713,-3.869 -11.01,-6.362c-3.303,-2.491 -5.928,-5.522 -7.878,-9.091c-1.956,-3.569 -2.597,-8.044 -1.919,-13.434c0.403,-3.232 1.482,-6.632 3.232,-10.2c1.75,-3.566 4.275,-6.797 7.575,-9.697c3.3,-2.894 7.44,-5.316 12.425,-7.269c4.978,-1.953 10.906,-2.931 17.775,-2.931c4.575,0 9.19,0.337 13.837,1.009c4.647,0.675 10.131,2.088 16.463,4.244l-8.685,18.178c-5.122,-1.478 -9.228,-2.422 -12.322,-2.828c-3.103,-0.403 -6.397,-0.603 -9.9,-0.603c-3.906,0 -7.068,0.775 -9.49,2.322c-2.428,1.55 -3.772,3.737 -4.041,6.562c-0.406,2.831 0.469,5.253 2.622,7.272c2.156,2.022 4.95,3.909 8.384,5.659c3.435,1.753 7.138,3.569 11.113,5.453c3.965,1.888 7.603,4.11 10.906,6.666c3.3,2.559 5.956,5.625 7.978,9.191c2.019,3.572 2.694,7.978 2.019,13.234c-0.675,4.844 -2.256,9.259 -4.744,13.228c-2.494,3.975 -5.587,7.344 -9.294,10.1c-3.706,2.763 -7.846,4.885 -12.421,6.366c-4.582,1.478 -9.229,2.222 -13.941,2.222c-5.25,0 -11.181,-0.475 -17.775,-1.416c-6.6,-0.941 -14.209,-3.297 -22.825,-7.069l8.887,-18.787Z" style="fill:#fff;fill-rule:nonzero;"/><path d="M847.192,321.224c6.056,2.422 11.443,4.109 16.159,5.05c4.713,0.943 9.222,1.412 13.534,1.412c4.982,0 8.754,-1.04 11.313,-3.131c2.556,-2.087 3.972,-4.409 4.241,-6.969c0.403,-2.959 -0.472,-5.453 -2.622,-7.475c-2.16,-2.018 -4.95,-3.903 -8.388,-5.653c-3.434,-1.75 -7.172,-3.5 -11.209,-5.253c-4.041,-1.747 -7.713,-3.869 -11.006,-6.362c-3.304,-2.491 -5.932,-5.522 -7.882,-9.091c-1.953,-3.569 -2.593,-8.044 -1.918,-13.434c0.406,-3.232 1.481,-6.632 3.231,-10.2c1.75,-3.566 4.272,-6.797 7.575,-9.697c3.3,-2.894 7.44,-5.316 12.425,-7.269c4.978,-1.953 10.909,-2.931 17.775,-2.931c4.578,0 9.19,0.337 13.837,1.009c4.644,0.675 10.132,2.088 16.463,4.244l-8.688,18.178c-5.118,-1.478 -9.222,-2.422 -12.318,-2.828c-3.104,-0.403 -6.4,-0.603 -9.897,-0.603c-3.91,0 -7.075,0.775 -9.497,2.322c-2.425,1.55 -3.772,3.737 -4.041,6.562c-0.403,2.831 0.469,5.253 2.625,7.272c2.153,2.022 4.95,3.909 8.385,5.659c3.437,1.753 7.134,3.569 11.109,5.453c3.972,1.888 7.606,4.11 10.909,6.666c3.3,2.559 5.96,5.625 7.982,9.191c2.018,3.572 2.69,7.978 2.018,13.234c-0.678,4.844 -2.259,9.259 -4.747,13.228c-2.493,3.975 -5.59,7.344 -9.293,10.1c-3.707,2.763 -7.847,4.885 -12.425,6.366c-4.575,1.478 -9.225,2.222 -13.938,2.222c-5.25,0 -11.178,-0.475 -17.775,-1.416c-6.597,-0.941 -14.209,-3.297 -22.828,-7.069l8.891,-18.787Z" style="fill:#fff;fill-rule:nonzero;"/><path d="M1001.72,282.439c0.806,-3.097 1.075,-6.059 0.806,-8.891c-0.269,-2.825 -1.044,-5.315 -2.322,-7.471c-1.284,-2.154 -3.031,-3.872 -5.253,-5.154c-2.222,-1.275 -4.885,-1.915 -7.978,-1.915c-2.828,0 -5.725,0.603 -8.688,1.815c-2.962,1.216 -5.725,3.132 -8.278,5.76c-2.566,2.625 -4.819,5.994 -6.769,10.097c-1.953,4.112 -3.265,9.062 -3.94,14.85c-1.485,11.715 0.034,20.775 4.543,27.172c4.51,6.393 11.01,9.593 19.494,9.593c4.713,0 9.394,-0.575 14.038,-1.718c4.65,-1.141 10.065,-3.06 16.262,-5.757l4.85,18.785c-7.678,3.503 -14.819,5.959 -21.412,7.372c-6.603,1.415 -13.066,2.125 -19.394,2.125c-9.291,0 -17.066,-1.688 -23.328,-5.05c-6.263,-3.366 -11.25,-7.71 -14.95,-13.032c-3.706,-5.315 -6.197,-11.343 -7.475,-18.078c-1.281,-6.734 -1.513,-13.534 -0.71,-20.403c1.079,-8.347 3.4,-15.822 6.972,-22.422c3.566,-6.597 8.044,-12.153 13.435,-16.665c5.381,-4.513 11.443,-7.979 18.178,-10.404c6.731,-2.425 13.737,-3.637 21.009,-3.637c7.406,0 14.003,1.484 19.797,4.444c5.788,2.965 10.231,7.072 13.328,12.325c3.103,5.25 4.65,11.547 4.65,18.887c0,7.341 -2.022,15.319 -6.059,23.938l-56.56,0c2.019,-4.713 4.607,-8.653 7.775,-11.819c3.163,-3.163 6.494,-4.747 9.997,-4.747l17.982,0Z" style="fill:#fff;fill-rule:nonzero;"/><path d="M473.812,394.607c-0.987,-0.36 -2.597,-0.625 -5.103,-0.625c-11.272,0 -20.491,11.634 -20.491,23.718c0,4.822 1.703,9.572 7.432,9.572c6.168,0 13.506,-8.05 15.653,-19.594l2.509,-13.071Zm-4.834,37.762c0,-2.597 0.443,-6.709 0.987,-11.184l-0.181,0c-4.65,9.031 -10.647,12.172 -16.822,12.172c-7.691,0 -12.437,-6.085 -12.437,-14.325c0,-15.119 11.093,-30.954 29.968,-30.954c4.21,0 8.685,0.722 11.725,1.616l-4.472,22.638c-1.431,7.512 -1.968,15.209 -1.79,20.037l-6.978,0Z" style="fill:#fff;fill-rule:nonzero;"/><path d="M520.519,394.607c-0.978,-0.36 -2.59,-0.625 -5.094,-0.625c-11.271,0 -20.49,11.634 -20.49,23.718c0,4.822 1.697,9.572 7.422,9.572c6.178,0 13.515,-8.05 15.659,-19.594l2.503,-13.071Zm-4.825,37.762c0,-2.597 0.444,-6.709 0.985,-11.184l-0.185,0c-4.644,9.031 -10.64,12.172 -16.819,12.172c-7.693,0 -12.434,-6.085 -12.434,-14.325c0,-15.119 11.091,-30.954 29.969,-30.954c4.209,0 8.684,0.722 11.722,1.616l-4.469,22.638c-1.431,7.512 -1.972,15.209 -1.794,20.037l-6.975,0Z" style="fill:#fff;fill-rule:nonzero;"/><path d="M533.773,432.369l5.728,-30.688c0.984,-4.831 1.609,-9.037 2.059,-12.612l6.622,0l-1.075,8.497l0.178,0c3.847,-6.088 9.754,-9.488 16.016,-9.488c5.184,0 11.006,2.95 11.006,11.994c0,1.969 -0.356,4.65 -0.806,6.978l-4.834,25.319l-7.338,0l4.744,-25.056c0.275,-1.697 0.544,-3.666 0.544,-5.541c0,-4.297 -1.707,-7.525 -6.807,-7.525c-5.278,0 -12.8,6.353 -14.762,17.1l-3.938,21.022l-7.337,0Z" style="fill:#fff;fill-rule:nonzero;"/><path d="M594.18,427.803l21.031,-23.437c3.669,-4.031 6.081,-6.269 9.034,-8.944l0,-0.272l-22.187,0l1.253,-6.084l31.044,0l-0.982,4.916l-20.668,23.084c-3.938,4.212 -6.263,6.453 -8.954,8.95l-0.081,0.269l24.066,0l-1.256,6.084l-33.107,0l0.807,-4.566Z" style="fill:#fff;fill-rule:nonzero;"/><path d="M657.445,393.898c-7.065,0 -12.346,6.885 -14.225,13.685c11.722,0.181 20.85,-1.428 20.85,-8.235c0,-3.487 -2.684,-5.45 -6.625,-5.45m8.238,36.057c-3.222,1.778 -8.503,3.403 -14.316,3.403c-11.447,0 -16.465,-7.878 -16.465,-17.456c0,-13.057 9.662,-27.822 23.618,-27.822c8.232,0 12.704,4.922 12.704,11.184c0,11.359 -12.794,14.319 -28.81,14.044c-0.356,1.878 -0.084,5.915 0.9,8.234c1.697,3.938 5.188,5.819 9.66,5.819c5.106,0 8.946,-1.522 11.628,-2.956l1.081,5.55Z" style="fill:#fff;fill-rule:nonzero;"/><path d="M697.988,393.898c-7.069,0 -12.347,6.885 -14.228,13.685c11.722,0.181 20.844,-1.428 20.844,-8.235c0,-3.487 -2.682,-5.45 -6.616,-5.45m8.234,36.057c-3.228,1.778 -8.503,3.403 -14.325,3.403c-11.443,0 -16.456,-7.878 -16.456,-17.456c0,-13.057 9.663,-27.822 23.622,-27.822c8.231,0 12.703,4.922 12.703,11.184c0,11.359 -12.797,14.319 -28.816,14.044c-0.359,1.878 -0.081,5.915 0.904,8.234c1.7,3.938 5.184,5.819 9.659,5.819c5.1,0 8.95,-1.522 11.634,-2.956l1.075,5.55Z" style="fill:#fff;fill-rule:nonzero;"/></g></svg>